<?xml version="1.0" encoding="UTF-8"?>
<svg id="Calque_1" data-name="Calque 1" xmlns="http://www.w3.org/2000/svg" viewBox="0 0 1190.72 254.89">
  <path d="m255.33,199.25c0,14.56.03,29.12-.01,43.68-.02,7.45-1.21,8.65-8.79,8.71-8.75.07-17.5.05-26.24-.04-7.47-.08-8.79-1.36-8.8-8.77-.02-26.83.02-53.66.06-80.49,0-5.02-.36-9.94-2.02-14.75-4.69-13.61-15.62-21.07-30.12-20.44-13.61.6-24.29,9.54-27.54,23.1-1.07,4.48-1.14,9.06-1.13,13.65.03,26,.05,51.99.07,77.99,0,8.67-1.04,9.75-9.63,9.76-8.75.01-17.5-.15-26.24-.02-5.79.09-8.19-2.3-8.15-8.23.17-26.2.07-52.41.06-78.61,0-2.5,0-4.99-.1-7.49-.68-16.76-9.81-27.81-24.61-29.81-15.74-2.13-29.72,6.97-34.53,22.46-1.44,4.62-1.78,9.36-1.77,14.17.04,25.79.04,51.58,0,77.37,0,9.03-1.1,10.13-10.01,10.16-8.33.03-16.66-.12-24.99-.04-5.56.06-8.44-1.95-8.39-8.05.23-27.66-.26-55.33.38-82.98,1.18-51.24,48.18-87.25,96.74-73.1,9.64,2.81,18.5,7.93,25.76,14.87,2.37,2.26,3.68,2.88,6.61.41,24.18-20.44,51.55-23.97,79.99-11.59,28.04,12.21,41.45,35.65,43.1,65.66.78,14.1.13,28.28.13,42.42.05,0,.11,0,.16,0Z"/>
  <path d="m582.3,96.82c0-23.39.05-45.58-.02-67.77-.04-13.49-.13-13.49,13.31-13.51,7.49-.01,14.99,0,22.48-.07,5.16-.05,7.56,2.28,7.54,7.57-.14,51.13,1.05,102.3-.69,153.37-1.16,34.05-21.05,57.92-51.93,71.04-59.25,25.16-120.92-16.66-120.3-80.76.61-63.04,70.99-103.27,125.69-71.85.87.5,1.8.92,3.91,1.98Zm-43.62,115.37c24.29-.15,43.9-19.26,43.81-42.69-.1-24.78-19.23-43.58-44.2-43.45-23.53.13-42.34,19.36-42.35,43.32-.02,23.78,19.14,42.97,42.74,42.82Z"/>
  <path d="m441.85,170.08c-.31,47.22-39.09,85.15-86.72,84.8-48.5-.35-87.07-38.76-86.71-86.34.35-46.77,39.76-85.52,86.71-85.26,48.95.27,87.04,38.4,86.72,86.81Zm-86.65-43.97c-23.94.04-43.23,19.02-43.22,42.52,0,24.25,18.93,43.43,42.98,43.57,23.72.14,43.65-19.51,43.68-43.06.03-23.96-19.26-43.07-43.44-43.03Z"/>
  <path d="m800.59,139.35c0,13.1.16,26.2-.03,39.29-.55,37.44-31.44,70.3-69.21,73.79-39.31,3.62-73.76-21.15-81.68-58.95-1.06-5.05-1.59-10.3-1.63-15.47-.21-28.06-.2-56.13-.22-84.2,0-6.68,1.86-8.56,8.48-8.62,8.74-.08,17.49-.05,26.23.02,6.93.06,8.71,1.89,8.7,9.07-.03,24.95-.12,49.89-.16,74.84,0,3.53-.03,7.08.27,10.59,1.64,18.62,15.46,31.06,33.75,30.49,18.03-.56,31.87-14.12,32.1-32.42.36-27.44.14-54.88.16-82.32,0-9.23,1.05-10.26,10.47-10.27,8.12,0,16.24-.07,24.36,0,6.66.06,8.45,1.85,8.48,8.63.07,15.18.02,30.35.02,45.53h-.11Z"/>
  <path d="m866.64,107.82c0,27.03-.04,54.07.02,81.1.04,15.36,4.86,20.22,20.14,20.29,3.57.02,6.33.4,8.16,4.1,7.05,14.18,18.07,24.73,31.15,33.36,1.57,1.04,4.6,1.67,3.67,4.28-.87,2.46-3.66,1.28-5.57,1.28-14.37.05-28.74.14-43.11-.11-32.78-.57-57.07-25.1-57.14-57.76-.12-56.77-.11-113.54-.14-170.32,0-7,1.4-8.42,8.36-8.48,8.33-.07,16.66-.1,24.99-.09,8.19.01,9.49,1.29,9.49,9.37.02,27.66,0,55.32,0,82.98h-.03Z"/>
  <path d="m1126.12,207.25c0,11.85.03,23.69-.01,35.54-.03,7.17-1.66,8.87-8.79,8.92-8.95.06-17.9-.03-26.85-.08-4.21-.02-7.62-1.32-7.55-6.25.38-27.21-1.79-54.53,1.07-81.61,4.77-45.23,40.64-77.73,86.07-79.05,23.06-.67,20.58-.77,20.59,19.73,0,5.4-.18,10.81-.02,16.21.15,4.74-1.73,6.94-6.63,6.63-3.94-.26-7.91-.21-11.86-.18-25.11.2-44.47,18.28-45.75,43.38-.62,12.23-.11,24.51-.11,36.77-.06,0-.11,0-.17,0Z"/>
  <path d="m72.5,20.24c-2.69-1.35-6.83-2.75-9.36-4.73-1.06-.83-1.72-2.08-1.9-3.42-.48-3.56-.59-7.29.16-10.69.62-2.79,3.61-.67,5.32-.06,22.5,8.05,39.37,22.85,51.63,43.15,4.1,6.78,7.68,14.15,10.34,21.55,1.21-2.66,1.37-3.09,1.88-4.42,9.75-29.04,29.37-48.55,57.62-60.08,5-2.04,6.22-1.11,6.46,4.35.3,6.86-1.78,10.03-8.73,12.13-19.17,5.78-30.11,14.32-42.34,29.84-.86,1.09-5.23,8.35-6.66,10.98,2.88-3.87,5.3-7.17,6.3-8.19,16.43-16.71,33.28-24.38,56.16-28.89,2.15-.42,6.75-2.17,7.67,1.67.98,4.14-2.48,3.9-5.12,4.33-20.09,3.26-34.41,10.47-50.79,22.89-1.12.92-3.39,2.93-4.41,3.96-.36.37-4.03,4.59-4.14,5.04,4.77-4.14,6.54-5.21,8.01-6.12,18.3-11.29,38.41-14.65,59.65-16.25.54-.04,1.07-.07,1.61-.08,2.17-.02,4.72-.53,4.66,2.97-.05,3.19-2.65,2.75-4.58,2.78-15.42.2-30.12,3.79-44.37,9.42-6.28,2.48-12.44,5.26-18.25,9.53,3.52-1.72,10.75-3.21,12.07-3.7,20.88-4.84,29.47-5.8,48.96-5.58,2.19.02,6.6-.55,6.66,3.46.07,4.14-4.03,3.22-6.21,3.2-23.79-.15-46.45,2.03-68.41,11.96-3.24,1.46-6.29,3.3-9.32,5.14-2.72,1.65-5.38,1.83-8.07.22-24.64-14.79-51.8-18.28-79.91-17.53-.3,0-.6,0-.9,0-1.78-.02-3.77.31-3.85-2.49-.08-2.73,1.87-2.94,3.79-2.98,9.79-.23,19.57-.26,29.33.96,12,1.5,23.67,4.37,35.24,8.1-6.12-5.29-13.49-8.25-20.83-11.07-13.29-5.11-27.04-8.33-41.38-8.64-2.21-.05-5.62.94-5.29-3.24.34-4.26,4.12-3.89,6.25-3.74,22.8,1.57,43.54,7.85,62.82,20.61.68.45,4.5,3.06,5.76,3.78.12.07,5.3,4.32-2.43-2.88-2.35-2.43-3.29-3.35-5.25-4.99-15.52-12.97-32.96-20.75-52.98-23.99-1.74-.28-4.2-.18-5.26-2.29-.58-1.16-.65-2.51.09-3.59,1.22-1.78,5.85-.38,7.37-.11,22.52,3.94,40.35,11.93,56.18,28.64,3.17,3.35,3.71,3.89,8.12,8.66-12.5-21.16-18.43-24.55-42.95-36.86-2.08-1.05-3.94-1.48-6.44-2.73Z"/>
  <path d="m1044.01,165.02c-5.62,0-11.24-.12-16.85.05-3.42.1-5.07-.86-5.9-4.58-3.82-17.09-14.2-28.34-31.27-32.89-3.84-1.02-4.8-2.91-4.73-6.55.2-10.59.32-21.2.01-31.79-.14-4.91,1.97-5.36,6.03-4.96,31.53,3.11,60.86,27.36,70.45,58.46,1.71,5.56,3.08,11.19,3.71,17.02.4,3.69-.52,5.41-4.58,5.23-5.61-.24-11.23-.06-16.85-.06v.07Z"/>
  <path d="m913.04,165.03c-5.41,0-9.68-.12-16.21.09-5.54.17-5.59-2.51-4.94-6.52,5.07-31.16,21.51-53.87,50.28-67.35,7.37-3.45,15.15-5.63,23.22-6.93,4.57-.73,4.99.07,4.84,8.45-.18,9.92.27,16.49.04,25.42-.15,5.93.42,7.98-3.48,9.16-17,5.17-27.55,16.45-31.16,33.87-.67,3.23-2.24,3.91-5.12,3.84-5.82-.14-11.64-.04-17.46-.04Z"/>
  <path d="m1043.46,178.34c5.41,0,10.84.25,16.23-.08,4.61-.28,5.6,1.28,4.96,5.76-4.8,33.86-33.21,63.36-67.23,69.52q-12.16,2.2-12.16-9.99c0-8.73.13-17.46-.04-26.18-.07-3.26,1.09-4.74,4.25-5.66,15.41-4.5,26.3-13.95,31.11-29.57.91-2.95,2.51-3.88,5.4-3.82,5.82.13,11.65.04,17.48.03Z"/>
  <path d="m913.94,178.46c1.46,0,2.93-.04,4.37-.03,13.4.12,17.62-2.48,21.59,10.11,3.44,10.91,14.76,19.05,25.6,22.51,3.95,1.26,5.26,2.94,5.28,7.46.03,10.97-.19,20.69-.09,30.75.04,4.45-.59,5.8-4.66,5.36-35.61-3.84-68.52-35.62-73.64-70.96-.65-4.51.68-5.43,4.69-5.29,5.62.21,11.24.05,16.87.05v.03Z"/>
  <path d="m1082.48,103.11c.02-18.96-2.28-17.93,17.7-17.86,7.7.03,15.41.08,23.11.15,1.2.01,2.67-.17,3.14,1.35.35,1.15-.52,1.89-1.45,2.46-19.8,12.22-34.62,28.85-42.49,51.63,0-12.58-.01-25.15,0-37.73Z"/>
  <path d="m626.46,247.06c-.06,2.65-1.29,5.38-4.18,5.39-12.55.04-24.05-.03-38.4-.45-.51-.02-.68-.69-.23-.94,21.03-11.79,35.96-26.51,43.47-49.89.02-.08.14-.06.13.02-.25,15.96-.45,29.91-.78,45.87Z"/>
  <path d="m763.96,248.88c17.29-9.93,30.6-23.49,37.35-42.37.61-1.69,3.05-1.19,3.03.61,0,.01,0,.02,0,.04.02,12.06-.03,24.11-.09,36.17-.04,7-1.45,8.52-8.33,8.58-9.78.07-19.57,0-29.35-.03-.72,0-1.49.1-2.28-.11-1.34-.36-1.53-2.18-.33-2.87Z"/>
  <path d="m0,114.92c.01-7.49.07-14.97.05-22.46,0-3.82,1.41-6.87,5.49-6.96,11.36-.24,22.73-.08,34.38.57-8.32,6.55-17.05,12.24-23.69,20.46C8.63,115.96,4.22,127.05,0,138.34c0-7.81,0-15.61,0-23.42Z"/>
</svg>